<mxfile host="65bd71144e">
    <diagram id="p4egEX_5WyGv1UxRBs7z" name="Page-1">
        <mxGraphModel dx="567" dy="431" grid="1" gridSize="10" guides="1" tooltips="1" connect="1" arrows="1" fold="1" page="1" pageScale="1" pageWidth="850" pageHeight="1100" math="0" shadow="0">
            <root>
                <mxCell id="0"/>
                <mxCell id="1" parent="0"/>
                <mxCell id="4" value="TASKS" style="rounded=0;whiteSpace=wrap;html=1;" parent="1" vertex="1">
                    <mxGeometry x="30" y="120" width="120" height="60" as="geometry"/>
                </mxCell>
                <mxCell id="5" value="USERS" style="rounded=0;whiteSpace=wrap;html=1;" parent="1" vertex="1">
                    <mxGeometry x="290" y="20" width="120" height="60" as="geometry"/>
                </mxCell>
                <mxCell id="6" value="COMENTS" style="rounded=0;whiteSpace=wrap;html=1;" parent="1" vertex="1">
                    <mxGeometry x="290" y="180" width="120" height="60" as="geometry"/>
                </mxCell>
                <mxCell id="9" value="" style="endArrow=classic;startArrow=classic;html=1;exitX=1;exitY=0.25;exitDx=0;exitDy=0;entryX=0;entryY=0.5;entryDx=0;entryDy=0;" parent="1" source="4" target="5" edge="1">
                    <mxGeometry width="50" height="50" relative="1" as="geometry">
                        <mxPoint x="260" y="120" as="sourcePoint"/>
                        <mxPoint x="310" y="70" as="targetPoint"/>
                        <Array as="points">
                            <mxPoint x="200" y="80"/>
                        </Array>
                    </mxGeometry>
                </mxCell>
                <mxCell id="12" value="" style="endArrow=classic;startArrow=classic;html=1;entryX=0;entryY=0.25;entryDx=0;entryDy=0;exitX=1;exitY=0.75;exitDx=0;exitDy=0;" edge="1" parent="1" source="4" target="6">
                    <mxGeometry width="50" height="50" relative="1" as="geometry">
                        <mxPoint x="150" y="180" as="sourcePoint"/>
                        <mxPoint x="220" y="150" as="targetPoint"/>
                    </mxGeometry>
                </mxCell>
            </root>
        </mxGraphModel>
    </diagram>
</mxfile>